<?xml version="1.0" standalone="no"?>
<!DOCTYPE svg PUBLIC "-//W3C//DTD SVG 20010904//EN"
 "http://www.w3.org/TR/2001/REC-SVG-20010904/DTD/svg10.dtd">
<svg version="1.0" xmlns="http://www.w3.org/2000/svg"
 width="214.000000pt" height="214.000000pt" viewBox="0 0 214.000000 214.000000"
 preserveAspectRatio="xMidYMid meet">

<g transform="translate(0.000000,214.000000) scale(0.100000,-0.100000)"
fill="#000000" stroke="none">
<path d="M951 2069 c-282 -33 -551 -196 -710 -432 -61 -91 -102 -179 -139
-297 -24 -78 -26 -100 -26 -265 -1 -159 2 -189 22 -260 84 -290 273 -517 537
-645 141 -69 231 -91 396 -97 197 -8 349 27 516 117 191 103 339 261 434 465
70 149 83 214 83 420 0 168 -2 186 -28 269 -125 409 -453 682 -871 726 -101
11 -111 11 -214 -1z m-326 -779 c9 -28 20 -48 24 -45 5 2 14 25 21 50 l13 45
83 0 84 0 0 -35 c0 -19 -4 -35 -10 -35 -6 0 -10 -33 -10 -79 0 -64 3 -80 17
-85 24 -10 29 -1 58 104 14 52 28 103 31 113 5 15 15 17 76 15 l71 -3 31 -115
c27 -98 34 -115 51 -115 18 0 20 8 23 83 2 52 -1 82 -8 82 -5 0 -10 16 -10 36
l0 36 115 -4 c103 -3 117 -5 137 -26 28 -28 32 -97 5 -117 -15 -11 -15 -14 -2
-25 8 -7 15 -23 15 -36 0 -12 5 -26 10 -29 6 -3 10 -19 10 -36 0 -29 0 -29
-60 -29 l-59 0 -3 57 c-2 46 -7 59 -20 61 -13 3 -18 -3 -18 -22 0 -14 5 -26
10 -26 6 0 10 -16 10 -35 l0 -34 -155 0 -155 0 0 34 c0 19 5 35 10 35 6 0 10
5 10 10 0 6 -11 10 -24 10 -14 0 -28 -4 -31 -10 -3 -5 -1 -10 4 -10 6 0 11
-16 11 -35 l0 -34 -141 0 -140 0 5 82 6 82 -28 -80 c-25 -74 -29 -80 -57 -83
-29 -3 -31 0 -60 80 l-30 83 -3 -44 c-2 -24 2 -49 7 -54 6 -6 11 -24 11 -39 0
-28 0 -28 -65 -28 l-65 0 0 29 c0 17 5 33 10 36 6 3 10 42 10 85 0 43 -4 82
-10 85 -5 3 -10 19 -10 36 l0 29 89 0 89 0 17 -50z m942 4 c-3 -3 -12 -4 -19
-1 -8 3 -5 6 6 6 11 1 17 -2 13 -5z m233 -4 c0 -5 -6 -10 -14 -10 -21 0 -24
-8 -40 -106 -10 -64 -11 -93 -3 -102 7 -10 6 -18 -7 -30 -16 -16 -18 -16 -36
6 -15 18 -28 22 -73 22 -46 0 -55 -3 -60 -20 -6 -23 -35 -27 -43 -5 -13 33 15
45 110 47 l91 2 -95 5 -95 6 -14 57 c-8 32 -13 60 -10 63 3 2 56 5 118 6 80 1
111 4 108 12 -2 7 -14 11 -26 10 -14 -2 -20 1 -15 8 3 6 16 8 29 5 17 -4 24
-1 28 14 5 20 47 29 47 10z m-130 -24 c0 -2 -9 -6 -20 -9 -11 -3 -18 -1 -14 4
5 9 34 13 34 5z m-805 -277 c16 -7 14 -8 -9 -4 -21 5 -32 1 -43 -15 -8 -11
-20 -20 -26 -19 -9 0 -9 2 0 6 9 3 10 10 3 24 -10 17 -7 19 22 18 18 0 42 -5
53 -10z m971 -26 c24 -16 46 -33 48 -39 2 -6 8 -48 11 -92 l7 -81 -36 -6 c-34
-7 -165 11 -176 24 -3 3 -14 11 -25 17 -16 9 -19 20 -17 53 4 52 -16 55 -24 2
-8 -49 -18 -65 -37 -58 -13 5 -14 13 -7 36 5 17 5 31 0 31 -4 0 -11 -11 -14
-25 -8 -32 -49 -53 -70 -36 -9 8 -21 9 -33 4 -22 -11 -83 -10 -101 0 -8 6 -10
21 -6 48 8 48 -11 54 -21 7 -14 -68 -6 -64 -125 -63 -129 1 -139 6 -121 65 13
44 34 60 80 60 34 0 35 -5 22 -62 -12 -53 0 -47 27 13 26 56 55 64 60 16 5
-41 18 -32 28 21 7 37 14 48 30 50 18 3 21 -1 17 -23 -4 -19 -2 -24 9 -20 24
9 41 -21 35 -60 -3 -19 -2 -35 3 -35 9 0 14 14 25 68 5 23 12 32 27 32 20 0
20 -16 2 -82 -4 -12 0 -18 10 -18 10 0 16 9 16 24 0 30 36 76 60 76 10 0 25
-9 33 -21 l15 -21 7 21 c5 17 13 20 48 17 23 -2 43 -9 45 -15 5 -16 22 -14 22
4 0 8 10 25 23 39 12 13 28 31 35 40 17 21 17 21 68 -11z m-1116 -2 c-24 -19
-24 -20 -5 -43 l19 -23 -24 23 -25 23 24 20 c13 10 26 19 30 19 3 0 -5 -9 -19
-19z m395 -6 c0 -5 -12 -11 -27 -13 -16 -2 -28 -7 -28 -12 0 -5 -3 -15 -6 -24
-4 -11 -1 -16 10 -16 22 0 20 -17 -3 -23 -12 -3 -21 -17 -25 -41 -6 -33 -29
-57 -42 -44 -2 3 2 37 11 77 18 86 18 84 5 76 -5 -3 -10 -18 -10 -31 0 -29
-23 -28 -28 0 -4 20 14 45 43 57 27 11 100 7 100 -6z m360 -16 c0 -7 -8 -15
-17 -17 -18 -3 -25 18 -11 32 10 10 28 1 28 -15z m-589 -3 c15 6 17 4 7 -6
-14 -15 -43 -7 -43 12 0 11 2 11 8 0 5 -7 16 -10 28 -6z m-9 -71 c23 4 22 3
-5 -7 -38 -13 -59 0 -47 29 6 16 8 16 16 -5 7 -18 14 -21 36 -17z m-110 -46
c15 -1 32 -1 36 0 5 1 6 -3 2 -9 -3 -5 -17 -7 -31 -4 -25 6 -30 -1 -15 -25 7
-11 16 -11 55 4 40 15 50 16 74 5 l27 -14 -45 -6 c-25 -3 -56 -12 -69 -19 -22
-12 -27 -11 -43 9 -10 12 -18 28 -18 36 0 7 -11 21 -25 30 -14 9 -25 22 -25
30 0 8 10 4 25 -11 13 -14 37 -26 52 -26z m33 21 c0 -15 -5 -12 -26 11 -19 22
-19 22 4 10 12 -6 22 -16 22 -21z"/>
<path d="M1300 1245 c0 -20 4 -26 18 -23 9 2 17 12 17 23 0 11 -8 21 -17 23
-14 3 -18 -3 -18 -23z"/>
<path d="M997 1223 c-11 -10 -8 -43 3 -43 6 0 10 11 10 25 0 26 -2 29 -13 18z"/>
<path d="M1563 1165 c0 -22 2 -30 4 -17 2 12 2 30 0 40 -3 9 -5 -1 -4 -23z"/>
<path d="M1600 1165 c0 -19 3 -35 8 -35 4 0 7 16 7 35 0 19 -3 35 -7 35 -5 0
-8 -16 -8 -35z"/>
<path d="M1648 1165 c-2 -19 0 -35 4 -35 4 0 8 16 8 35 0 19 -2 35 -4 35 -2 0
-6 -16 -8 -35z"/>
<path d="M1693 1165 c0 -22 2 -30 4 -17 2 12 2 30 0 40 -3 9 -5 -1 -4 -23z"/>
<path d="M1767 963 c-4 -3 -7 -11 -7 -17 0 -6 5 -5 12 2 6 6 9 14 7 17 -3 3
-9 2 -12 -2z"/>
<path d="M1752 888 c-15 -15 -16 -45 -2 -53 16 -10 12 -38 -5 -32 -8 4 -17 2
-20 -3 -7 -11 40 -24 54 -15 17 10 13 53 -5 63 -19 10 -11 32 12 32 8 0 14 5
14 10 0 14 -33 13 -48 -2z"/>
<path d="M1130 871 c-13 -25 -13 -61 0 -61 11 0 14 7 24 53 7 31 -8 36 -24 8z"/>
<path d="M1526 874 c-3 -9 -6 -27 -6 -41 0 -40 25 -21 27 20 1 38 -10 49 -21
21z"/>
<path d="M1234 845 c4 -11 2 -22 -6 -26 -7 -4 -9 -11 -6 -14 11 -11 28 5 28
25 0 10 -5 22 -12 26 -8 5 -9 2 -4 -11z"/>
<path d="M1687 836 c-4 -10 -5 -21 -2 -24 9 -9 17 6 13 25 -3 17 -4 17 -11 -1z"/>
<path d="M848 783 c7 -3 16 -2 19 1 4 3 -2 6 -13 5 -11 0 -14 -3 -6 -6z"/>
<path d="M785 760 c-3 -6 1 -7 9 -4 18 7 21 14 7 14 -6 0 -13 -4 -16 -10z"/>
</g>
</svg>
